<svg width="150" height="140" xmlns="http://www.w3.org/2000/svg"><defs><linearGradient x1="33.798%" y1="34.859%" x2="50%" y2="71.505%" id="a"><stop stop-color="#D0D5E7" offset="0%"/><stop stop-color="#EDEEF2" offset="100%"/></linearGradient><linearGradient x1="33.798%" y1="25.741%" x2="50%" y2="84.455%" id="b"><stop stop-color="#DADDE7" offset="0%"/><stop stop-color="#EDEEF2" offset="100%"/></linearGradient><linearGradient x1="33.81%" y1="14.795%" x2="49.936%" y2="99.665%" id="c"><stop stop-color="#CBD3EF" offset="0%"/><stop stop-color="#E8EFFE" offset="100%"/></linearGradient><linearGradient x1="50%" y1="13.631%" x2="50%" y2="98.522%" id="d"><stop stop-color="#D2D5E0" offset="0%"/><stop stop-color="#F0F3FC" offset="100%"/></linearGradient></defs><g fill="none"><path d="M106.67 8.058H42.336a10.174 10.174 0 00-8.806 5.091L1.363 68.935a10.189 10.189 0 000 10.183l32.167 55.787A10.17 10.17 0 0042.336 140h64.334a10.16 10.16 0 008.806-5.095l32.166-55.787a10.189 10.189 0 000-10.183L115.476 13.15a10.165 10.165 0 00-8.806-5.091" fill="#F1F2F6"/><path d="M54.367 140h53.026c3.63 0 6.983-1.97 8.8-5.164l28.786-50.667a68.524 68.524 0 00-21.959-3.593c-34.641 0-63.36 25.738-68.653 59.424" fill="url(#a)"/><path d="M0 74.176a10.19 10.19 0 001.366 4.738l32.398 55.977A10.251 10.251 0 0042.637 140h11.087c3.8-23.703 19.566-43.405 40.915-52.818-12.85-15.705-32.394-25.743-54.302-25.743-15.015 0-28.931 4.716-40.337 12.737" fill="url(#b)"/><path d="M130.884 74.53a5.032 5.032 0 005.032 5.038 5.038 5.038 0 005.035-5.038 5.034 5.034 0 10-10.068 0M103.7 24.17a5.032 5.032 0 005.032 5.039 5.038 5.038 0 005.036-5.038 5.034 5.034 0 10-10.068 0M73.496 54.387a5.032 5.032 0 005.032 5.037 5.038 5.038 0 005.036-5.037 5.034 5.034 0 10-10.068 0m0-34.245a5.032 5.032 0 005.032 5.038 5.038 5.038 0 005.036-5.038 5.034 5.034 0 10-10.068 0M19.13 54.387a5.032 5.032 0 005.031 5.037 5.038 5.038 0 005.036-5.037 5.034 5.034 0 10-10.068 0" fill="url(#c)"/><path d="M56.951 0c-4.114 0-7.48 3.428-7.48 7.623v25.6h-1.354c-3.402 0-6.177-2.823-6.177-6.293v-8.285c0-4.15-3.302-7.514-7.376-7.514-4.078 0-7.38 3.364-7.38 7.514v8.285c0 11.758 9.39 21.329 20.933 21.329h1.355v23.686c0 4.191 3.365 7.623 7.48 7.623 4.118 0 7.483-3.432 7.483-7.623V7.623C64.435 3.428 61.07 0 56.951 0zm32.654 40.86v64.322c0 4.192 3.43 7.624 7.618 7.624 4.188 0 7.621-3.432 7.621-7.624v-23.69h.699c11.753 0 21.313-9.566 21.313-21.325v-8.285a7.516 7.516 0 00-7.512-7.518 7.516 7.516 0 00-7.513 7.518v8.285c0 3.466-2.821 6.293-6.288 6.293h-.699v-25.6c0-4.194-3.433-7.623-7.621-7.623-4.189 0-7.618 3.429-7.618 7.624" fill="url(#d)"/></g></svg>